<?xml version="1.0" encoding="utf-8"?>
<!-- Generator: Adobe Illustrator 24.1.1, SVG Export Plug-In . SVG Version: 6.00 Build 0)  -->
<svg version="1.1" id="Capa_1" xmlns="http://www.w3.org/2000/svg" xmlns:xlink="http://www.w3.org/1999/xlink" x="0px" y="0px"
	 viewBox="0 0 1156.04 1156.04" style="enable-background:new 0 0 1156.04 1156.04;" xml:space="preserve">
<style type="text/css">
	.st0{fill:#040403;}
	.st1{fill:#7B7A7D;}
	.st2{fill:#FFFFFF;}
	.st3{fill:#FFFEFF;}
	.st4{fill:#F7F7F8;}
	.st5{fill:#FAFAFB;}
	.st6{fill:#FAFAFA;}
	.st7{fill:#5B5F66;}
	.st8{fill:#F0EFF1;}
	.st9{fill:#5A5D64;}
	.st10{fill:#26262C;}
	.st11{fill:#C0C4CA;}
	.st12{fill:#C1C5CA;}
	.st13{fill:#414449;}
	.st14{fill:#48484E;}
	.st15{fill:#404146;}
	.st16{fill:#333339;}
	.st17{fill:#3B3E44;}
	.st18{fill:#C0C0C5;}
	.st19{fill:#C7C5C9;}
	.st20{fill:#43474D;}
	.st21{fill:#CBC6C8;}
	.st22{fill:#46494F;}
	.st23{fill:#A1999C;}
	.st24{fill:#CDCACD;}
	.st25{fill:#B0B4BA;}
	.st26{fill:#87878D;}
	.st27{fill:#D2D1D4;}
	.st28{fill:#CCCDD2;}
	.st29{fill:#BDB5B5;}
	.st30{fill:#8E8C90;}
	.st31{fill:#D9D3D4;}
	.st32{fill:#B2ADAF;}
	.st33{fill:#B5ADAF;}
	.st34{fill:#5D5457;}
	.st35{fill:#8B8B91;}
	.st36{fill:#5F6168;}
	.st37{fill:#D4D1D3;}
	.st38{fill:#6D676B;}
	.st39{fill:#40393C;}
	.st40{fill:#BABABE;}
	.st41{fill:#81777A;}
	.st42{fill:#CACDD3;}
	.st43{fill:#AFAAAC;}
	.st44{fill:#575256;}
	.st45{fill:#53585F;}
	.st46{fill:#727279;}
	.st47{fill:#C4C8CD;}
	.st48{fill:#6C6569;}
	.st49{fill:#E1E0E2;}
	.st50{fill:#585A61;}
	.st51{fill:#45474D;}
	.st52{fill:#6E6567;}
	.st53{fill:#5B5256;}
	.st54{fill:#B6B0B3;}
	.st55{fill:#50494D;}
	.st56{fill:#4E4E54;}
	.st57{fill:#44474D;}
	.st58{fill:#55585E;}
	.st59{fill:#B8B2B5;}
	.st60{fill:#BDB4B5;}
	.st61{fill:#8E8183;}
	.st62{fill:#707076;}
	.st63{fill:#B9BDC3;}
	.st64{fill:#5C5F65;}
	.st65{fill:#C1C0C5;}
	.st66{fill:#564E52;}
	.st67{fill:#CDCACC;}
	.st68{fill:#43454B;}
	.st69{fill:#46484F;}
	.st70{fill:#8B8386;}
	.st71{fill:#696C73;}
	.st72{fill:#56565C;}
	.st73{fill:#030405;}
	.st74{fill:#060608;}
	.st75{fill:#060708;}
	.st76{fill:#08080A;}
	.st77{fill:#07080A;}
	.st78{fill:#050607;}
	.st79{fill:#050608;}
	.st80{fill:#09090B;}
	.st81{fill:#0A0B0D;}
	.st82{fill:#040406;}
	.st83{fill:#040506;}
	.st84{fill:#525459;}
	.st85{fill:#A2ABB4;}
	.st86{fill:#B8BAC0;}
	.st87{fill:#C8C4C6;}
	.st88{fill:#D0C7C8;}
	.st89{fill:#E4E4E6;}
	.st90{fill:#484549;}
	.st91{fill:#BEB8BB;}
	.st92{fill:#070709;}
	.st93{fill:#4A464A;}
	.st94{fill:#474347;}
	.st95{fill:#FEFEFE;}
	.st96{fill:#272529;}
	.st97{fill:#1F1E22;}
	.st98{fill:#141316;}
	.st99{fill:#F0ECE5;}
	.st100{fill:#67822A;}
</style>
<path class="st99" d="M399.29,618.4c0-23.66,0.18-47.32-0.13-70.97c-0.08-5.8,1.9-7.32,7.38-7.13c10.45,0.36,20.92,0.21,31.37,0.05
	c4.67-0.07,7.39,1.45,7.04,6.51c-0.21,3.08,1.55,5.78,1.83,8.67c0.71,7.27,3.29,4.34,6.27,1.49c4.62-4.4,9.46-8.52,14.78-12.1
	c19.13-12.85,44.73-12.51,60.16,1.13c3.32,2.93,6.64,6.05,7.73,10.68c0.27,1.14,0.02,2.74,1.79,2.91c1.67,0.16,2.54-0.93,3.56-2.17
	c12.41-15.27,28.6-22.84,48.19-21.68c18.37,1.09,36.58,13.01,36.86,34.76c0.52,40.49,0.3,80.98,0.48,121.47
	c0.01,3.34-1.24,4.41-4.51,4.39c-14.73-0.12-29.46-0.22-44.18,0.03c-5.27,0.09-4.54-3.22-4.55-6.33
	c-0.02-27.92-0.03-55.84,0.04-83.76c0.01-4.29-0.37-8.45-1.48-12.61c-1.89-7.09-8.83-11.53-15.97-9.72c-3.09,0.78-6.34,1.57-9,3.19
	c-4.6,2.79-7.89,6.3-7.83,12.67c0.3,29.84-0.01,59.68,0.27,89.51c0.05,5.65-1.55,7.29-7.17,7.1c-12.58-0.41-25.18-0.12-37.78-0.12
	c-8.4,0-8.39-0.01-8.39-8.14c0-28.99,0.08-57.97-0.06-86.96c-0.03-5.92-0.7-11.56-6.78-15.39c-7.4-4.66-13.78-1.17-19.91,1.78
	c-4.94,2.37-6.92,7-6.85,13.15c0.37,29.62,0.03,59.25,0.29,88.87c0.05,5.37-1.52,6.92-6.81,6.79c-13.44-0.33-26.9-0.33-40.34,0
	c-5.07,0.13-6.54-1.45-6.49-6.46c0.23-23.87,0.1-47.74,0.1-71.61C399.26,618.4,399.28,618.4,399.29,618.4z"/>
<path class="st99" d="M648.85,668.57c0-40.28,0.09-80.55-0.1-120.83c-0.03-5.52,1.57-7.62,7.26-7.42
	c10.23,0.36,20.49,0.26,30.73,0.02c4.99-0.12,7.61,1.65,7.75,6.77c0.04,1.47,0.34,2.98,0.79,4.38c0.45,1.36,0.49,3.18,2.07,3.75
	c2.43,0.87,2.62-1.67,3.55-2.82c13.01-16.05,40.23-20.9,57.59-13.72c25.17,10.41,37.94,30.32,41.29,56.48
	c2.58,20.16,2.01,40.39-2.51,60.33c-3.85,16.99-13.41,30.8-28.06,39.4c-13.87,8.15-29.65,8.25-45.06,2.49
	c-5.91-2.21-10.71-5.85-14.95-10.43c-1.34-1.45-2.48-4.08-5.05-2.98c-2.46,1.06-1.6,3.71-1.61,5.72
	c-0.04,33.03-0.18,66.06,0.12,99.09c0.06,6.22-1.2,8.52-7.97,8.19c-12.78-0.62-25.61-0.48-38.4-0.05c-5.97,0.2-7.63-1.68-7.59-7.56
	c0.23-40.28,0.12-80.55,0.12-120.83C648.83,668.57,648.84,668.57,648.85,668.57z M702.49,617.19c0,8.95-0.03,17.89,0.02,26.84
	c0.01,2.07-0.3,4.14,1.42,5.98c8.43,9.05,26.33,8.71,34.35-1.08c5.1-6.22,6.66-14.13,7.45-21.75c1.21-11.64,0.43-23.25-4.14-34.41
	c-1.28-3.12-2.97-5.25-5.37-7.45c-6.89-6.31-15.13-5.38-23.04-4.25c-7.33,1.05-10.7,6.23-10.7,13.75
	C702.47,602.28,702.47,609.74,702.49,617.19z"/>
<path class="st99" d="M150.48,470.86c17.56-0.96,34.77,0.97,51.26,7.6c12.31,4.95,12.53,5.05,7.74,17.21
	c-4.72,12-10.06,23.76-14.88,35.72c-1.6,3.96-3.68,4.51-7.31,2.76c-15.29-7.39-31.45-8.31-47.85-5.45
	c-14.2,2.48-21.43,13.18-26.15,25.25c-5.95,15.21-7.34,31-4.57,47.45c2.14,12.71,5.71,23.94,15.19,33.21
	c7.35,7.18,16.6,8.48,25.73,9.33c12.87,1.2,25.41-1.47,37.13-7.13c4.07-1.97,6.35-1.56,8.15,3.03
	c5.27,13.43,10.86,26.74,16.52,40.01c2.05,4.81,1.54,7.43-3.9,9.72c-30.32,12.76-61.3,14.4-93.18,7.19
	c-14.91-3.37-27.79-10.17-39.33-19.91c-17.21-14.53-27.01-33.24-32.17-54.92c-5.06-21.28-5.37-42.68-1.65-63.95
	c6.65-38.05,25.87-67.02,63.29-81.31C119.21,471.04,134.76,470.03,150.48,470.86z"/>
<path class="st99" d="M400.65,419.19c0.01-27.47,0.15-54.95-0.12-82.42c-0.05-5.16,1.52-6.57,6.5-6.52
	c25.59,0.26,51.19-0.09,76.78,0.39c17.83,0.34,34.11,6.21,48.1,17.3c12.22,9.69,20.23,22.48,24.71,37.41
	c6.06,20.17,5.96,40.78,1.93,61.07c-3.8,19.14-14.04,35.19-29.78,47.08c-11.13,8.41-24.61,11.97-38.05,13.33
	c-28.47,2.89-57.12,0.74-85.68,1.3c-5.19,0.1-4.39-3.41-4.4-6.52C400.63,474.14,400.64,446.66,400.65,419.19z M466.12,373.9
	c-2.56,0-5.12,0.05-7.67-0.01c-3.29-0.08-4.47,1.54-4.47,4.72c0.05,27.46,0.05,54.92,0.02,82.39c0,2.49,0.85,4.34,3.45,4.46
	c12.89,0.57,25.46,0.05,35.63-9.69c12.27-11.76,15.16-26.71,13.69-42.54C504.49,388.83,490.96,373.42,466.12,373.9z"/>
<path class="st99" d="M815.53,617.95c-1.02-19.66,3.93-37.91,14.28-54.36c4.71-7.48,11.98-13.26,20.01-17.35
	c29.43-15,59.2-14.89,88.24,0.4c13.35,7.03,22.88,18.63,27.96,33.24c10.2,29.33,10.12,58.57-4.44,86.2
	c-11.37,21.57-31.25,32.32-55.29,34.35c-14.4,1.22-28.84,0.96-42.99-3.73c-25.38-8.41-38.97-26.58-45.22-51.6
	C815.84,636.1,816.12,626.99,815.53,617.95z M918.08,618.69c0.54-6.72-0.53-13.66-1.67-20.59c-1.34-8.12-8.67-16.1-15.74-17.31
	c-12.22-2.09-22.42,1.26-26.64,10c-8.31,17.2-7.53,35.15-1.35,52.63c3.27,9.25,14.65,14.76,23.27,13.45
	c11.61-1.77,18.91-9.17,20.79-20.71C917.65,630.47,918.32,624.79,918.08,618.69z"/>
<path class="st99" d="M368.6,637.41c0,19.58-0.21,35.57,0.11,51.54c0.11,5.57-1.07,7.91-7.27,7.57c-10.21-0.56-20.5-0.6-30.71,0.01
	c-5.88,0.35-8.32-1.45-9.3-7.14c-0.55-3.19,0.96-8.21-2.5-9.25c-2.97-0.89-4.63,4-7.1,6.1c-18.86,16.05-39.94,19.15-62.43,9.76
	c-9.49-3.96-15.34-12.61-18.72-22.27c-6.65-19.04-2.57-43.83,14.24-57.52c10.74-8.75,23.42-13.47,36.7-16.42
	c8.08-1.8,16.42-2.44,24.77-2.47c2.77-0.01,6.8,1.45,7.93-2.17c1.25-3.99,1.28-8.45-2.08-12c-4.54-4.8-10.46-6.36-16.69-6.57
	c-13.55-0.45-26.51,2.85-39.18,7.21c-12.08,4.16-12.07,4.34-15.75-7.94c-1.88-6.28-3.19-12.75-5.46-18.89
	c-1.42-3.84,0.17-5.38,3.02-6.84c10.22-5.26,21.25-7.85,32.36-10.57c13.16-3.22,26.38-4.5,39.78-3.77
	c14.87,0.82,28.58,5.21,40.34,14.78c9.75,7.94,13.77,18.93,16.09,30.61C370.72,600.97,367.5,621.07,368.6,637.41z M314.84,640.48
	c-0.01,0-0.02,0-0.03,0c0-4.26-0.09-8.52,0.03-12.77c0.09-3.19-1.05-4.94-4.44-4.52c-7.64,0.95-15.1,2.37-21.05,7.9
	c-6.24,5.79-8.18,15.63-4.39,22.77c2.99,5.64,11.76,10.61,16.74,9.5c10.68-2.39,13.14-5.84,13.14-18.4
	C314.84,643.46,314.84,641.97,314.84,640.48z"/>
<path class="st99" d="M657.93,457.22c-9.6,0.01-19.21-0.14-28.81,0.09c-2.83,0.07-7.53-1.83-7.87,2.82
	c-0.31,4.22,0.97,8.7,5.59,11.21c8.35,4.55,17.32,5.15,26.53,4.94c10.06-0.23,19.9-1.78,29.42-4.89c4.73-1.54,6.68,0.46,6.79,4.53
	c0.18,6.62,1.27,13.07,2.41,19.55c0.5,2.87,0.12,5.49-3.18,6.79c-26.9,10.6-54.08,14.75-81.76,3.11
	c-16.36-6.88-24.18-20.95-28.52-36.89c-4.25-15.61-4.18-31.67,0.74-47.21c6.67-21.08,19.07-35.71,42.63-39.97
	c15.13-2.73,29.35-1.18,43.42,3.01c9.28,2.76,15.61,9.99,20.86,18.35c9.57,15.23,10.51,31.82,9.51,48.94
	c-0.24,4.07-1.93,5.86-6.42,5.72C678.85,456.98,668.39,457.22,657.93,457.22z M636.17,435.68c3.41,0,6.84-0.2,10.23,0.04
	c5.69,0.41,6.57-2.78,5.57-7.22c-1.83-8.13-8.63-13.88-15.99-13.74c-8.07,0.15-12.4,4.03-14.63,13.13c-1.52,6.23-0.43,7.7,5.87,7.78
	C630.2,435.71,633.19,435.68,636.17,435.68z"/>
<path class="st99" d="M968.72,322.65c56.32-0.57,94.4,22.09,122.28,61.34c22.23,31.3,28.2,67.59,21.58,105.15
	c-2.72,15.43-9.77,29.77-17.43,43.93c-11.14,20.61-27.6,35.3-46.29,47.76c-15.1,10.07-32.34,15.98-50.41,19.06
	c-4.6,0.78-9.06,2.18-13.84,2.03c-2.91-0.09-4-0.98-4.35-4.02c-1.3-11.27-1.38-10.74,9.82-11.81c18.2-1.74,34.64-8.61,50.21-18.11
	c21.24-12.95,37.04-30.92,47.59-52.96c10.86-22.69,13.55-47.18,9.84-72.07c-2.96-19.82-9.59-38.31-22.32-54.25
	c-13.64-17.06-29.3-31.37-49.76-40.21c-14.77-6.38-30.13-10.28-45.93-11.43c-15.96-1.16-31.64,2.28-46.67,7.78
	c-15.84,5.8-30.68,13.56-42.82,25.49c-12.29,12.08-23.88,25.05-30.05,41.33c-11.36,30.01-14.73,60.51-2.96,91.51
	c2.7,7.12,4.63,14.51,8.63,21.11c0.49,0.81,0.83,2.2,0.47,2.96c-1.36,2.92-14,2.81-15.74-0.17c-4.97-8.5-8.25-17.74-10.99-27.11
	c-6.39-21.82-6.65-44.01-2.39-66.19c3.3-17.18,10.65-32.82,19.91-47.63c13.97-22.34,33.64-37.95,56.78-50.1
	C933.3,325.9,953.8,322.27,968.72,322.65z"/>
<path class="st99" d="M975.58,352.73c19.3-1.49,37.17,2.92,53.72,12.76c19.77,11.75,34.84,27.79,44.79,48.61
	c1.83,3.84,0.58,5.1-3.01,5.41c-22.89,2.01-42.95,11.96-62.25,23.22c-8.65,5.05-16.27,12.2-22.87,19.96
	c-3.89,4.58-6.68,4.46-12.32,1.95c-9.8-4.36-9.33-13.3-12.28-20.84c-0.39-1-0.44-2.33,0.83-2.69c1.77-0.5,3.46,0.23,4.46,1.69
	c2.64,3.85,5.28,7.72,7.54,11.78c1.32,2.38,2.38,4.77,5.6,3.88c3.32-0.92,4.57-3.38,4.53-6.8c-0.03-2.52,0.99-5.16,0.54-7.56
	c-0.91-4.87,1.78-11.6-6.29-13.26c-1.69-0.35-2.58-2.27-3.07-3.89c-2.58-8.49-8.2-15.32-12.9-22.54c-3.63-5.57-10.21-8.51-16.5-9.75
	c-12.73-2.49-25.72-3.71-38.7-3.98c-11.35-0.24-13.79,2.64-14.01,13.85c-0.13,6.67,1.01,13.37-1.74,20.02
	c-1.19,2.89-1.61,6.85,2.05,9.83c2.99,2.44,2.54,6.95,2.1,10.12c-0.48,3.38-4.67,1.47-7.22,1.89c-5.87,0.97-11.77,1.77-17.65,2.7
	c-3.5,0.56-4.35-0.44-3.76-4.17c2.55-16.11,8.69-30.57,17.4-44.4c15.01-23.84,36.99-37.84,63.06-46.02
	C956.53,351.74,966.26,352.84,975.58,352.73z"/>
<path class="st99" d="M716.15,414.51c0-28.99,0.2-57.98-0.15-86.96c-0.08-6.48,2.28-8.13,8.17-7.94c9.6,0.31,19.21,0.23,28.81,0
	c5-0.12,7.22,1.22,7.2,6.83c-0.18,58.4-0.15,116.81-0.02,175.21c0.01,4.83-1.13,6.8-6.41,6.57c-9.8-0.43-19.66-0.57-29.44,0.03
	c-6.5,0.4-8.38-1.52-8.3-8.04C716.34,471.64,716.15,443.07,716.15,414.51z"/>
<path class="st100" d="M891.06,464.12c25.6,0.53,50.17,5.91,73.02,18.84c17.27,9.78,33.52,20.74,45.57,36.69
	c6.88,9.11,15.17,17.33,19.54,28.19c0.55,1.36,1.05,2.74,1.65,4.08c1.36,3.07,0.77,5.03-2.6,6.5c-3.4,1.49-4.88-0.32-6.03-2.7
	c-6.86-14.11-16.43-26.46-26.62-38.11c-6.45-7.38-14.78-13.45-23.12-18.76c-10.97-6.99-22.48-13.19-35.03-17.26
	c-11.69-3.79-23.63-6.44-35.79-7.04c-9.89-0.48-19.97-1.53-29.85,1.21c-4.17,1.16-6.04-1.36-7.27-5.11
	c-1.49-4.55,2.34-3.45,4.21-4.46C875.79,462.41,883.41,465.55,891.06,464.12z"/>
<path class="st100" d="M890.92,495.37c18.72-0.27,36.96,2.96,53.64,11.24c13.17,6.55,24.74,15.83,35.15,26.56
	c8.61,8.87,15.48,18.92,22.6,28.86c3.57,4.98,2.75,5.83-3.11,7.2c-5.46,1.28-7.73-0.38-11.02-4.99
	c-8.66-12.14-16.25-25.38-29.28-33.9c-13.47-8.8-27.79-15.34-43.35-19.76c-11.38-3.23-22.7-1.85-34.05-2.37
	c-3.85-0.18-9.88-6.17-9.51-9.79c0.3-2.91,2.79-2.94,4.85-3C881.53,495.28,886.23,495.37,890.92,495.37z"/>
<path class="st100" d="M1086.28,439.67c0.2,4.68-2.76,4.97-6.28,5.39c-16.49,2.01-32.51,5.77-46.51,15.25
	c-10.4,7.03-22.08,12.34-29.73,23.13c-2.69,3.79-5.76-0.72-8.29-1.89c-3.49-1.61-0.45-3.75,0.73-4.89
	c8.46-8.24,17.1-16.45,27.38-22.31c6.91-3.93,13.28-9.15,21.18-11.15c11.98-3.02,23.49-8.12,36.18-8.06
	C1084.33,435.17,1086.26,436.28,1086.28,439.67z"/>
<path class="st100" d="M1087.11,465.52c2.19,10.98-0.03,13.05-10.95,14.51c-9.53,1.27-18.59,4.94-26.92,10.04
	c-7.75,4.74-15.14,9.89-21.12,16.88c-1.62,1.9-4.48,1.87-5.45-0.24c-1.3-2.81-6.17-5.09-2.11-9.28
	c11.58-11.95,24.29-21.89,40.75-26.66C1069.82,468.3,1078.46,467.03,1087.11,465.52z"/>
<path class="st99" d="M944.15,443.74c-0.15,7.99-0.14,7.94-7.85,6.58c-9.2-1.62-18.29-4.1-27.75-3.94c-3.18,0.05-4.86-1.07-4.17-4.6
	c0.45-2.29,0.36-4.69,0.88-6.96c1.32-5.76,7.15-8.45,12.1-5.3c4.88,3.11,10.21,2.53,15.48,2.92
	C941.09,433.07,944.29,436.3,944.15,443.74z"/>
<path class="st100" d="M472.26,772.19c-1.7,0-3.41-0.1-5.11,0.03c-2.4,0.18-5.59-0.88-6.46,2.52c-0.94,3.67,0.66,6.84,3.76,8.74
	c4.26,2.62,8.87,2.44,13.45,0.49c1.33-0.56,3.09-1.42,3.85,0.47c0.7,1.75-0.95,2.59-2.34,3.17c-7.26,3.07-14.14,2.46-20.41-2.42
	c-5.03-3.92-7.51-12.96-5.59-19.58c1.58-5.45,9.72-12.78,15.32-12.97c3.41-0.11,7.26,0.17,9.07,4.26c0.59,1.33,1.46,2.66,2.52,3.64
	c2.59,2.4,5.09,4.81,3.44,8.71c-1.8,4.26-5.75,2.6-8.95,2.9C473.97,772.26,473.11,772.19,472.26,772.19z M469.15,768.08
	c2.44-1.41,7.77,2.4,7.56-3.58c-0.13-3.86-3.27-6.17-7.6-5.86c-4.38,0.32-8.97,2.09-8.64,6.54
	C460.81,769.64,465.99,767.15,469.15,768.08z"/>
<path class="st100" d="M594.58,775.45c0,3,0.21,6.41-0.06,9.79c-0.27,3.25-2.46,4.85-5.28,2.97c-3.36-2.23-6.24-1.63-9.55-0.29
	c-7.56,3.05-12.27,1.21-14.2-5.31c-1.33-4.5,3.64-12.29,8.85-13.55c3.06-0.74,6.22-1.08,9.33-1.6c1.9-0.32,4.14-0.5,4.35-2.89
	c0.18-2.16-0.76-4.55-2.76-5.32c-3.38-1.31-6.8-3.57-10.75-0.6c-1.67,1.25-5.01,2.12-5.84-0.88c-0.86-3.1,2.35-3.28,4.6-3.88
	C587.03,750.21,597.2,758.55,594.58,775.45z M587.19,776.26c-0.51-2.37,0.61-6.2-4.67-5.88c-6.77,0.41-10.62,3.46-10.56,8.75
	c0.06,4.93,3.32,5.91,7.23,5.98C584.37,785.19,587.22,782.13,587.19,776.26z"/>
<path class="st100" d="M332.08,771.14c0.01-4.26,0.04-8.53,0-12.79c-0.04-3.9,1.72-5.61,4.92-2.91c3.17,2.67,5.11,1.94,8.28-0.11
	c8.25-5.34,15.17-1.3,15.27,8.53c0.07,6.82,0.05,13.64-0.03,20.46c-0.02,1.79,0.4,4.39-2.25,4.42c-2.19,0.02-2.78-2.24-3.17-4.2
	c-1.15-5.75,0.47-11.45,0.32-17.2c-0.13-5.12-1.48-8.11-7.32-7.91c-6.69,0.23-9.62,2.36-9.73,8.08c-0.1,5.54,0.01,11.08-0.06,16.62
	c-0.03,2.23,0.59,5.17-3.1,5.03c-3.45-0.13-3.09-2.94-3.13-5.23C332.03,779.67,332.08,775.41,332.08,771.14z"/>
<path class="st100" d="M275.82,774.68c0,2.13,0.02,4.25,0,6.38c-0.07,7.15-0.16,7.29-6.84,4.74c-2.63-1-3.9,1.03-5.73,1.81
	c-4.45,1.9-8.81,3.48-12.8-0.98c-4.92-5.51-1.25-15.18,6.8-17.5c2.82-0.81,5.78-1.18,8.69-1.64c1.77-0.28,3.41-0.64,3.83-2.7
	c0.43-2.1-0.27-3.78-2.15-4.87c-3.73-2.14-7.43-4.43-11.8-1.36c-1.51,1.06-3.5,1.54-4.32-0.53c-1.04-2.6,1.45-3.16,3.17-3.74
	c12.6-4.24,21.62,2.33,21.17,15.29C275.77,771.28,275.82,772.98,275.82,774.68z M269.65,775.98c0.27-3.29-0.71-5.92-5.08-5.78
	c-6.34,0.2-10.33,3.87-10.39,9.17c-0.04,4.24,1.45,6.15,5.98,5.86C267.23,784.76,269.74,782.63,269.65,775.98z"/>
<path class="st100" d="M1079.03,502.39c-3.02,3.13-2.59,8.32-6.92,10.4c-10.19,4.89-19.23,11.14-25.9,20.46
	c-1.33,1.86-3.63,2.27-4.88,0.46c-1.52-2.21-4.53-4.82-1.63-7.84c9.67-10.05,19.8-19.55,33.28-24.45
	C1075,500.69,1077.19,499.29,1079.03,502.39z"/>
<path class="st100" d="M203.54,772.25c-0.56-8.84,4.47-14.38,12.18-18.58c4.17-2.27,7.37,0,10.9,0.99c1.31,0.37,1.98,1.6,1.66,3.05
	c-0.36,1.62-1.75,1.52-3.01,1.73c-4.05,0.66-8.8-1.71-12.07,2.21c-3.35,4.02-1.56,9.01-1.59,13.53c-0.05,8.41,4.96,11.88,13.06,9.35
	c1.88-0.59,3.91-2,4.7,0.69c0.81,2.77-2.17,2.69-3.73,3.3C214.57,792.77,203.44,784.77,203.54,772.25z"/>
<path class="st100" d="M435.64,783.6c-2.6,5.77-10.33,7.89-16.1,4.61c-7.32-4.16-10.75-10.72-10.05-18.96
	c0.63-7.31,5.16-12.04,11.76-15.15c3.79-1.79,7.29-1.03,11-0.21c1.82,0.4,2.5,1.25,2.37,3.04c-0.13,1.94-1.3,2.49-2.98,2.51
	c-1.06,0.01-2.12,0.02-3.19,0.05c-4.28,0.12-9.1-1.38-10.9,4.81c-1.9,6.53-1.75,13.04,2.66,18.04c3.35,3.79,8.61,4.25,13.48,1.43
	C434.03,783.57,434.52,783.68,435.64,783.6z"/>
<path class="st100" d="M505.02,753.68c4.68,5.21,8.35,4.35,12.06,1.42c1.71-1.35,4.07-1.45,4.91,0.62c0.94,2.31-1.36,3.56-3.22,3.56
	c-7.72-0.01-9.02,4.51-8.52,10.92c0.34,4.43,0.02,8.9,0.09,13.35c0.03,2.55-0.53,5.27-3.28,5.3c-3.3,0.04-1.94-3.17-1.96-4.94
	C504.94,774.43,505.02,764.95,505.02,753.68z"/>
<path class="st100" d="M544.92,772.37c0,4.25,0.05,8.5-0.02,12.74c-0.03,1.61,0.42,3.73-1.99,4.03c-2.21,0.27-4.02-1.11-4.07-3.16
	c-0.24-9.55-0.21-19.1-0.19-28.65c0-1.77,1.3-2.56,2.99-2.65c2.11-0.1,3.19,1,3.21,3.03c0.05,4.88,0.02,9.77,0.02,14.65
	C544.89,772.37,544.91,772.37,544.92,772.37z"/>
<path class="st100" d="M297.58,772.21c0-4.02-0.13-8.04,0.06-12.05c0.08-1.86-1.05-5.22,1.97-4.97c2.4,0.2,4.91,3.39,4.27,5.82
	c-1.99,7.55-0.45,15.11-1.03,22.63c-0.18,2.29,0.11,5.38-2.98,5.37c-3.67-0.01-2.09-3.42-2.22-5.39
	C297.41,779.83,297.58,776.01,297.58,772.21z"/>
<path class="st100" d="M390.09,771.89c0.01,4.03,0.04,8.05-0.01,12.08c-0.02,1.89,0.09,4.43-2.22,4.64
	c-2.76,0.25-3.18-2.24-3.18-4.5c-0.01-8.48-0.02-16.96,0.01-25.43c0.01-1.97,0.13-4.07,2.92-3.88c2.31,0.15,2.44,1.99,2.45,3.74
	C390.1,762.99,390.08,767.44,390.09,771.89z"/>
<path class="st99" d="M949.47,440.63c5.15,3.67,4.77,8.6,6.62,12.33c0.48,0.98-1.09,2.75-2.14,2.57c-1.81-0.33-4.33-0.56-4.44-3.25
	C949.35,448.79,949.47,445.28,949.47,440.63z"/>
<path class="st100" d="M541.67,746.46c-0.2-4.1,1.43-6.74,4.89-7.88c0.72-0.24,2,0.47,1.76,1.29
	C547.31,743.24,543.85,744.18,541.67,746.46z"/>
<path class="st100" d="M387.75,745.73c-1.69-0.17-3.08-0.68-3.23-2.43c-0.16-1.82,0.69-3.25,2.56-3.7c1.95-0.47,2.59,0.9,2.77,2.43
	C390.06,743.76,389.76,745.34,387.75,745.73z"/>
</svg>
